<svg width="622" height="503" viewBox="0 0 622 503" fill="none" xmlns="http://www.w3.org/2000/svg">
<path d="M437.314 3.82589L80.378 160.235C49.2262 173.886 44.5281 216.148 71.9314 236.297L385.834 467.24C413.231 487.397 452.179 470.332 455.928 436.538L498.961 49.1934C502.716 15.3713 468.466 -9.8258 437.314 3.82589Z" fill="#FFF1C9"/>
<path d="M553.988 484.512H32.3186C31.9399 484.512 31.5767 484.362 31.3089 484.094C31.0411 483.826 30.8906 483.463 30.8906 483.084C30.8906 482.706 31.0411 482.342 31.3089 482.074C31.5767 481.807 31.9399 481.656 32.3186 481.656H553.988C554.367 481.656 554.73 481.807 554.998 482.074C555.266 482.342 555.416 482.706 555.416 483.084C555.416 483.463 555.266 483.826 554.998 484.094C554.73 484.362 554.367 484.512 553.988 484.512Z" fill="#262626"/>
<path d="M358.288 200.619L376.095 141.771C376.343 140.949 376.77 140.193 377.344 139.555C377.918 138.917 378.626 138.414 379.417 138.081C380.208 137.748 381.063 137.594 381.92 137.63C382.778 137.665 383.617 137.889 384.378 138.286L403.599 148.282C404.43 148.715 405.144 149.341 405.682 150.108C406.22 150.875 406.565 151.761 406.688 152.69C406.812 153.618 406.709 154.563 406.39 155.444C406.071 156.325 405.545 157.116 404.855 157.75L358.288 200.619Z" fill="#D3B970"/>
<path d="M353.726 198.312L404.534 166.682C405.323 166.192 406.212 165.885 407.136 165.785C408.059 165.684 408.993 165.793 409.869 166.103C410.745 166.413 411.54 166.916 412.194 167.575C412.849 168.234 413.347 169.032 413.652 169.91L420.392 189.423C420.712 190.35 420.807 191.339 420.67 192.309C420.533 193.28 420.168 194.204 419.604 195.006C419.04 195.808 418.294 196.464 417.426 196.921C416.559 197.378 415.596 197.622 414.616 197.634L353.726 198.312Z" fill="#D3B970"/>
<path d="M281.883 307.205C305.539 307.205 324.716 288.028 324.716 264.372C324.716 240.716 305.539 221.539 281.883 221.539C258.227 221.539 239.05 240.716 239.05 264.372C239.05 288.028 258.227 307.205 281.883 307.205Z" fill="#262626"/>
<path d="M189.699 78.1748H21.4944C10.808 78.1748 2.14502 86.8378 2.14502 97.5242V171.994C2.14502 182.681 10.808 191.344 21.4944 191.344H189.699C200.385 191.344 209.048 182.681 209.048 171.994V97.5242C209.048 86.8378 200.385 78.1748 189.699 78.1748Z" fill="white"/>
<path d="M189.699 192.772H21.5016C15.9909 192.766 10.7076 190.575 6.81095 186.678C2.91432 182.781 0.722711 177.498 0.717041 171.987V97.5314C0.722711 92.0207 2.91432 86.7374 6.81095 82.8407C10.7076 78.9441 15.9909 76.7525 21.5016 76.7468H189.699C195.208 76.7544 200.49 78.9468 204.385 82.8433C208.28 86.7397 210.47 92.0219 210.476 97.5314V171.987C210.47 177.497 208.28 182.779 204.385 186.675C200.49 190.572 195.208 192.764 189.699 192.772ZM21.5016 79.6028C16.7478 79.6066 12.1898 81.4967 8.82837 84.8581C5.46693 88.2196 3.57682 92.7776 3.57304 97.5314V171.987C3.57682 176.741 5.46693 181.299 8.82837 184.661C12.1898 188.022 16.7478 189.912 21.5016 189.916H189.699C194.451 189.91 199.007 188.019 202.367 184.658C205.727 181.297 207.616 176.74 207.62 171.987V97.5314C207.616 92.7788 205.727 88.2219 202.367 84.8607C199.007 81.4994 194.451 79.6085 189.699 79.6028H21.5016Z" fill="#262626"/>
<path d="M39.9085 116.359C39.5359 116.36 39.1779 116.214 38.9111 115.954C38.6443 115.694 38.4898 115.34 38.4805 114.967C38.3448 109.155 40.494 105.685 42.3289 103.793C44.3531 101.653 47.1388 100.396 50.083 100.294H50.1615C53.0049 100.355 55.7095 101.535 57.6871 103.579C59.5578 105.457 61.7783 108.955 61.7069 114.946C61.7069 115.324 61.5565 115.688 61.2887 115.955C61.0208 116.223 60.6576 116.374 60.2789 116.374C59.9002 116.374 59.537 116.223 59.2691 115.955C59.0013 115.688 58.8509 115.324 58.8509 114.946C58.908 109.948 57.1516 107.092 55.6665 105.628C54.2145 104.131 52.2386 103.256 50.1544 103.186H50.1044C47.9305 103.283 45.8807 104.226 44.3924 105.814C42.3147 107.956 41.2579 111.112 41.3508 114.931C41.3555 115.119 41.3232 115.306 41.2558 115.481C41.1884 115.656 41.0872 115.816 40.9579 115.952C40.8286 116.088 40.6738 116.197 40.5023 116.273C40.3308 116.349 40.146 116.39 39.9585 116.395L39.9085 116.359Z" fill="#262626"/>
<path d="M70.6105 171.402H29.7839C28.7841 171.401 27.7958 171.187 26.8854 170.774C25.9749 170.361 25.1633 169.758 24.5048 169.005C23.8463 168.253 23.3562 167.368 23.0673 166.411C22.7784 165.454 22.6974 164.446 22.8296 163.455L28.5416 121.015C28.7666 119.33 29.5958 117.785 30.875 116.666C32.1543 115.547 33.7964 114.93 35.496 114.932H63.956C65.6281 114.932 67.2452 115.529 68.5163 116.615C69.7873 117.701 70.6287 119.206 70.8889 120.858L77.522 163.305C77.6798 164.304 77.6192 165.326 77.3445 166.299C77.0698 167.273 76.5875 168.176 75.9307 168.945C75.2739 169.714 74.4583 170.332 73.5399 170.757C72.6215 171.181 71.6221 171.401 70.6105 171.402Z" fill="#FFE18B"/>
<path d="M181.53 108.456H104.169C101.097 108.456 98.6064 110.946 98.6064 114.018V118.337C98.6064 121.409 101.097 123.899 104.169 123.899H181.53C184.602 123.899 187.092 121.409 187.092 118.337V114.018C187.092 110.946 184.602 108.456 181.53 108.456Z" fill="#FFBB45"/>
<path d="M183.401 143.449H102.305C101.926 143.449 101.563 143.298 101.295 143.03C101.027 142.763 100.877 142.399 100.877 142.021C100.877 141.642 101.027 141.279 101.295 141.011C101.563 140.743 101.926 140.593 102.305 140.593H183.401C183.78 140.593 184.143 140.743 184.411 141.011C184.679 141.279 184.829 141.642 184.829 142.021C184.829 142.399 184.679 142.763 184.411 143.03C184.143 143.298 183.78 143.449 183.401 143.449Z" fill="#262626"/>
<path d="M171.984 161.798H102.305C101.926 161.798 101.563 161.648 101.295 161.38C101.027 161.112 100.877 160.749 100.877 160.37C100.877 159.992 101.027 159.628 101.295 159.361C101.563 159.093 101.926 158.942 102.305 158.942H171.984C172.363 158.942 172.726 159.093 172.994 159.361C173.262 159.628 173.412 159.992 173.412 160.37C173.412 160.749 173.262 161.112 172.994 161.38C172.726 161.648 172.363 161.798 171.984 161.798Z" fill="#262626"/>
<path d="M409.975 344.161C434.707 344.161 454.757 324.239 454.757 299.665C454.757 275.09 434.707 255.168 409.975 255.168C385.242 255.168 365.193 275.09 365.193 299.665C365.193 324.239 385.242 344.161 409.975 344.161Z" fill="#262626"/>
<path d="M365.193 284.128C389.925 284.128 409.975 264.206 409.975 239.632C409.975 215.057 389.925 195.135 365.193 195.135C340.46 195.135 320.411 215.057 320.411 239.632C320.411 264.206 340.46 284.128 365.193 284.128Z" fill="#262626"/>
<path d="M325.851 232.484H298.633C291.933 232.484 285.299 231.165 279.109 228.6C272.919 226.036 267.295 222.278 262.558 217.54C257.82 212.802 254.063 207.177 251.499 200.987C248.936 194.797 247.617 188.162 247.618 181.462V146.647C247.628 138.644 250.814 130.972 256.477 125.317C262.14 119.662 269.817 116.486 277.82 116.488H314.57C327.023 116.488 338.965 121.435 347.77 130.24C356.576 139.045 361.523 150.988 361.523 163.441V196.877C361.519 201.558 360.593 206.191 358.798 210.514C357.004 214.837 354.375 218.763 351.062 222.07C347.75 225.376 343.818 227.998 339.493 229.785C335.167 231.572 330.531 232.489 325.851 232.484Z" fill="#262626"/>
<path d="M258.878 128.412C258.878 128.412 242.727 130.797 238.486 164.954C237.985 169.127 236.184 173.036 233.338 176.128L230.739 178.942C230.084 179.65 229.711 180.574 229.691 181.538C229.672 182.503 230.006 183.441 230.632 184.175L234.152 188.316L232.374 210.165C232.374 210.165 228.804 233.448 256.215 232.727H273.651V256.882H328.45V215.363C328.45 215.363 340.938 213.221 343.209 200.926C343.782 197.852 343.652 194.689 342.829 191.673C342.005 188.657 340.509 185.867 338.453 183.511C334.362 178.877 327.151 174.943 315.277 180.484C315.284 180.484 268.117 189.952 258.878 128.412Z" fill="white"/>
<path d="M324.716 206.202C323.586 206.202 322.482 205.867 321.542 205.239C320.603 204.612 319.871 203.72 319.439 202.676C319.006 201.632 318.893 200.484 319.114 199.376C319.334 198.268 319.878 197.25 320.677 196.451C321.476 195.652 322.494 195.108 323.602 194.888C324.71 194.667 325.858 194.781 326.902 195.213C327.946 195.645 328.838 196.377 329.465 197.317C330.093 198.256 330.428 199.36 330.428 200.49C330.428 202.005 329.826 203.458 328.755 204.529C327.684 205.6 326.231 206.202 324.716 206.202ZM324.716 197.591C324.151 197.591 323.599 197.759 323.129 198.073C322.66 198.386 322.293 198.832 322.077 199.354C321.861 199.876 321.805 200.45 321.915 201.004C322.025 201.558 322.297 202.067 322.696 202.467C323.096 202.866 323.605 203.138 324.159 203.248C324.713 203.359 325.287 203.302 325.809 203.086C326.331 202.87 326.777 202.504 327.091 202.034C327.404 201.564 327.572 201.012 327.572 200.447C327.572 199.69 327.271 198.963 326.735 198.428C326.2 197.892 325.473 197.591 324.716 197.591Z" fill="#262626"/>
<path d="M320.411 201.897C320.039 201.897 319.682 201.752 319.416 201.494C319.149 201.235 318.994 200.883 318.983 200.512C318.883 197.563 319.761 195.178 321.603 193.422C325.259 189.937 331.363 190.38 331.599 190.401C331.978 190.431 332.329 190.609 332.576 190.898C332.823 191.186 332.946 191.561 332.916 191.94C332.887 192.319 332.708 192.67 332.42 192.917C332.131 193.164 331.756 193.287 331.378 193.257C331.328 193.257 326.265 192.9 323.524 195.514C322.288 196.699 321.724 198.305 321.796 200.433C321.802 200.621 321.772 200.809 321.706 200.985C321.64 201.161 321.539 201.323 321.411 201.46C321.282 201.598 321.127 201.708 320.956 201.785C320.784 201.863 320.599 201.906 320.411 201.911V201.897Z" fill="#262626"/>
<path d="M264.626 180.441C266.491 180.441 268.003 178.929 268.003 177.064C268.003 175.199 266.491 173.687 264.626 173.687C262.761 173.687 261.249 175.199 261.249 177.064C261.249 178.929 262.761 180.441 264.626 180.441Z" fill="#262626"/>
<path d="M252.766 208.922C251.391 208.928 250.029 208.656 248.761 208.123C244.655 206.388 241.899 201.811 241.906 196.742C241.908 196.316 242.003 195.897 242.184 195.512C242.365 195.128 242.628 194.787 242.954 194.515C243.281 194.243 243.663 194.046 244.074 193.937C244.485 193.828 244.915 193.811 245.333 193.886L262.362 196.927C262.798 197.008 263.209 197.186 263.566 197.448C263.922 197.711 264.215 198.051 264.421 198.442C264.627 198.834 264.742 199.268 264.756 199.71C264.771 200.153 264.685 200.593 264.504 200.997C262.32 205.852 257.486 208.922 252.766 208.922ZM244.819 196.663C244.811 196.684 244.811 196.707 244.819 196.727C244.819 200.669 246.869 204.181 249.932 205.481C254.63 207.466 260.042 204.053 261.963 199.769L261.92 199.683L244.884 196.642L244.819 196.663Z" fill="#262626"/>
<path d="M273.201 232.756H299.383C299.615 232.758 299.84 232.839 300.019 232.986C300.198 233.134 300.321 233.338 300.368 233.565C300.415 233.792 300.382 234.029 300.276 234.235C300.169 234.441 299.995 234.604 299.783 234.698L273.201 246.05V232.756Z" fill="#262626"/>
<path d="M273.201 256.325C273.195 255.023 273.609 253.753 274.38 252.704C275.152 251.655 276.24 250.882 277.485 250.499C278.437 250.21 279.415 250.014 280.405 249.913C284.145 249.567 287.892 250.495 291.037 252.548C293.663 250.513 296.889 249.405 300.211 249.397C303.534 249.39 306.765 250.482 309.401 252.505C312.06 250.719 315.167 249.715 318.369 249.606C320.377 249.551 322.379 249.855 324.28 250.506C325.465 250.92 326.491 251.692 327.217 252.715C327.942 253.739 328.331 254.963 328.329 256.218V268.713H273.201V256.325Z" fill="#FFE18B"/>
<path d="M485.766 436.574L170.713 436.31L184.679 308.454C186.003 296.337 191.747 285.134 200.812 276.985C209.877 268.837 221.628 264.316 233.817 264.286L364.057 263.958C379.253 263.921 394.113 268.424 406.731 276.891C419.35 285.357 429.151 297.4 434.879 311.474C461.297 372.221 480.411 416.575 482.496 421.837C483.488 424.417 484.283 427.069 484.873 429.77C485.337 432.013 485.635 434.287 485.766 436.574Z" fill="#FFE18B"/>
<path d="M390.447 436.41H228.954V326.961H350.827C352.492 326.961 354.113 327.494 355.453 328.482C356.793 329.47 357.781 330.861 358.274 332.452L390.447 436.41Z" fill="#262626"/>
<path d="M350.805 328.389C350.465 328.394 350.134 328.277 349.873 328.06C349.611 327.843 349.435 327.539 349.377 327.204C348.978 324.84 339.788 269.291 358.959 262.615C359.317 262.49 359.71 262.513 360.052 262.677C360.393 262.842 360.655 263.136 360.78 263.494C360.905 263.851 360.883 264.244 360.718 264.586C360.553 264.927 360.26 265.189 359.902 265.314C345.857 270.198 349.577 311.303 352.198 326.718C352.229 326.903 352.224 327.093 352.183 327.276C352.141 327.46 352.063 327.633 351.955 327.786C351.846 327.939 351.708 328.069 351.549 328.169C351.389 328.269 351.212 328.336 351.027 328.368C350.954 328.381 350.88 328.388 350.805 328.389Z" fill="#262626"/>
<path d="M232.524 328.389C232.202 328.39 231.889 328.281 231.637 328.082C231.384 327.882 231.206 327.603 231.132 327.289C227.403 311.746 227.303 295.554 230.839 279.966C232.121 274.416 233.87 268.985 236.066 263.729C236.218 263.39 236.497 263.124 236.843 262.987C237.189 262.851 237.575 262.854 237.918 262.998C238.261 263.141 238.535 263.412 238.681 263.754C238.827 264.096 238.834 264.482 238.7 264.829C236.568 269.937 234.87 275.215 233.624 280.608C230.184 295.771 230.284 311.522 233.917 326.64C233.959 326.823 233.965 327.012 233.934 327.197C233.903 327.382 233.836 327.559 233.736 327.718C233.637 327.878 233.507 328.016 233.354 328.125C233.201 328.233 233.028 328.311 232.846 328.353C232.74 328.379 232.632 328.391 232.524 328.389Z" fill="#262626"/>
<path d="M212.111 239.096C210.626 237.177 208.923 235.437 207.034 233.912L206.956 233.841C203.425 230.707 200.357 227.086 197.845 223.088C195.618 219.518 194.275 215.862 192.09 210.236C190.998 207.437 190.227 205.238 189.798 204.01C184.708 189.387 181.366 176.278 176.197 174.393C175.418 174.129 174.61 173.964 173.791 173.901C172.7 173.798 171.599 173.916 170.555 174.246C169.51 174.575 168.542 175.111 167.707 175.821C167.154 176.294 166.673 176.844 166.279 177.456C164.28 180.634 165.273 185.239 167.322 194.314C167.65 195.742 167.943 196.92 168.136 197.705L172.284 216.726C172.284 216.726 162.088 219.033 162.659 227.115C162.659 227.115 153.235 221.532 149.579 232.499C149.579 232.499 137.655 233.463 141.118 246.543C141.118 246.543 145.923 264.05 153.042 264.629C153.042 264.629 151.699 291.946 174.398 303.899L211.526 299.229L213.967 288.648C220.393 260.802 217.495 251.77 216.416 248.428C215.374 245.151 213.928 242.016 212.111 239.096Z" fill="white"/>
<path d="M179.21 288.412C178.985 288.413 178.762 288.36 178.561 288.258C178.36 288.156 178.186 288.008 178.053 287.827C173.767 282.007 171.105 275.151 170.342 267.963C168.721 251.541 178.103 239.403 181.945 235.226L178.967 227.544C178.674 226.765 178.296 225.773 177.875 224.787C175.511 219.297 174.448 214.684 174.719 211.072C174.796 209.98 175.093 208.916 175.592 207.943C176.092 206.97 176.783 206.108 177.625 205.41C178.449 204.722 179.405 204.209 180.433 203.902C181.462 203.596 182.542 203.501 183.608 203.625C190.077 204.339 193.947 211.736 194.111 212.043C194.197 212.209 194.25 212.392 194.266 212.579C194.282 212.766 194.26 212.955 194.203 213.134C194.146 213.313 194.055 213.479 193.933 213.622C193.812 213.766 193.664 213.884 193.497 213.97C193.33 214.057 193.148 214.109 192.961 214.125C192.774 214.141 192.585 214.12 192.406 214.063C192.227 214.006 192.061 213.914 191.917 213.793C191.774 213.672 191.656 213.523 191.569 213.356C191.569 213.292 188.235 207.009 183.294 206.466C182.609 206.386 181.914 206.446 181.252 206.642C180.591 206.838 179.976 207.167 179.446 207.609C178.9 208.062 178.452 208.622 178.129 209.254C177.806 209.887 177.615 210.578 177.568 211.286C177.332 214.434 178.317 218.597 180.495 223.659C180.945 224.695 181.338 225.737 181.638 226.515L185.265 235.869L184.629 236.526C181.538 239.731 171.584 251.448 173.205 267.67C173.909 274.346 176.373 280.716 180.345 286.127C180.568 286.432 180.661 286.813 180.603 287.187C180.546 287.56 180.342 287.895 180.038 288.119C179.8 288.301 179.51 288.404 179.21 288.412Z" fill="#262626"/>
<path d="M260.092 429.434C250.423 428.797 240.719 429.949 231.468 432.833C197.046 443.678 181.773 475.466 178.532 482.663L260.092 483.084V429.434Z" fill="white"/>
<path d="M261.52 484.519L176.325 484.077L177.225 482.077C182.551 470.282 198.445 441.744 231.039 431.469C240.456 428.532 250.334 427.358 260.177 428.006L261.52 428.092V484.519ZM180.766 481.249L258.664 481.649V430.784C249.609 430.343 240.547 431.505 231.896 434.218C202.115 443.579 186.714 468.847 180.766 481.249Z" fill="#262626"/>
<path d="M166.436 268.57C165.042 268.584 163.663 268.281 162.402 267.685C160.833 266.916 159.502 265.733 158.554 264.265C158.064 264.862 157.454 265.349 156.762 265.693C155.449 266.314 153.947 266.404 152.571 265.942C152.394 265.878 152.232 265.78 152.094 265.653C151.956 265.526 151.844 265.374 151.765 265.203C151.685 265.033 151.64 264.849 151.632 264.662C151.624 264.475 151.653 264.287 151.717 264.111C151.782 263.935 151.88 263.773 152.007 263.635C152.133 263.496 152.286 263.384 152.456 263.305C152.626 263.226 152.81 263.181 152.998 263.173C153.185 263.165 153.372 263.194 153.549 263.258C154.2 263.454 154.901 263.405 155.519 263.122C155.951 262.845 156.323 262.484 156.613 262.061C156.904 261.638 157.107 261.161 157.212 260.659L158.64 256.011L159.975 260.68C159.975 260.68 160.924 263.8 163.68 265.1C165.637 266.028 168.121 265.864 171.063 264.622C171.237 264.54 171.426 264.494 171.618 264.487C171.81 264.48 172.001 264.511 172.181 264.58C172.36 264.648 172.524 264.753 172.662 264.886C172.801 265.019 172.911 265.179 172.986 265.356C173.061 265.533 173.099 265.724 173.099 265.916C173.099 266.108 173.06 266.298 172.984 266.475C172.909 266.652 172.798 266.811 172.66 266.944C172.521 267.077 172.357 267.181 172.177 267.249C170.371 268.069 168.419 268.518 166.436 268.57Z" fill="#262626"/>
<path d="M158.575 262.515C158.272 262.514 157.978 262.417 157.734 262.237C157.49 262.057 157.31 261.805 157.219 261.516L148.208 232.913C148.094 232.551 148.129 232.159 148.305 231.823C148.48 231.487 148.782 231.234 149.143 231.121C149.505 231.007 149.897 231.042 150.233 231.217C150.569 231.393 150.822 231.694 150.936 232.056L159.911 260.659C159.967 260.838 159.988 261.026 159.971 261.213C159.955 261.4 159.901 261.582 159.815 261.749C159.728 261.915 159.609 262.063 159.465 262.184C159.321 262.304 159.154 262.395 158.975 262.451C158.846 262.491 158.711 262.513 158.575 262.515Z" fill="#262626"/>
<path d="M172.712 256.596C172.418 256.596 172.131 256.504 171.891 256.334C171.651 256.164 171.469 255.924 171.37 255.647L161.338 227.579C161.275 227.403 161.247 227.215 161.256 227.028C161.266 226.84 161.312 226.656 161.392 226.486C161.472 226.317 161.585 226.164 161.724 226.038C161.863 225.912 162.026 225.815 162.202 225.751C162.379 225.688 162.567 225.66 162.754 225.669C162.942 225.679 163.125 225.725 163.295 225.805C163.465 225.885 163.617 225.998 163.743 226.137C163.869 226.276 163.967 226.439 164.03 226.615L174.026 254.69C174.103 254.906 174.127 255.137 174.095 255.364C174.064 255.59 173.979 255.806 173.846 255.993C173.714 256.18 173.539 256.333 173.335 256.437C173.132 256.542 172.906 256.597 172.677 256.596H172.712Z" fill="#262626"/>
<path d="M546.584 98.7166H453.157C439.608 98.7166 428.624 109.699 428.624 123.246C428.624 136.793 439.608 147.776 453.157 147.776H546.584C560.133 147.776 571.117 136.793 571.117 123.246C571.117 109.699 560.133 98.7166 546.584 98.7166Z" fill="white"/>
<path d="M546.62 149.211H453.15C446.265 149.211 439.662 146.475 434.793 141.607C429.924 136.738 427.189 130.135 427.189 123.25C427.189 116.364 429.924 109.761 434.793 104.892C439.662 100.024 446.265 97.2886 453.15 97.2886H546.62C553.505 97.2886 560.109 100.024 564.977 104.892C569.846 109.761 572.581 116.364 572.581 123.25C572.581 130.135 569.846 136.738 564.977 141.607C560.109 146.475 553.505 149.211 546.62 149.211ZM453.15 100.145C447.022 100.145 441.146 102.579 436.813 106.912C432.479 111.245 430.045 117.122 430.045 123.25C430.045 129.377 432.479 135.254 436.813 139.587C441.146 143.92 447.022 146.355 453.15 146.355H546.62C552.748 146.355 558.625 143.92 562.958 139.587C567.291 135.254 569.725 129.377 569.725 123.25C569.725 117.122 567.291 111.245 562.958 106.912C558.625 102.579 552.748 100.145 546.62 100.145H453.15Z" fill="#262626"/>
<path d="M461.047 131.239C465.46 131.239 469.037 127.662 469.037 123.25C469.037 118.837 465.46 115.26 461.047 115.26C456.634 115.26 453.057 118.837 453.057 123.25C453.057 127.662 456.634 131.239 461.047 131.239Z" fill="#F9B800"/>
<path d="M499.867 131.239C504.28 131.239 507.857 127.662 507.857 123.25C507.857 118.837 504.28 115.26 499.867 115.26C495.455 115.26 491.878 118.837 491.878 123.25C491.878 127.662 495.455 131.239 499.867 131.239Z" fill="#F9B800"/>
<path d="M538.687 131.239C543.1 131.239 546.677 127.662 546.677 123.25C546.677 118.837 543.1 115.26 538.687 115.26C534.275 115.26 530.698 118.837 530.698 123.25C530.698 127.662 534.275 131.239 538.687 131.239Z" fill="#F9B800"/>
<path d="M79.8425 233.198H34.4678C25.1774 233.198 17.646 240.73 17.646 250.02V295.395C17.646 304.685 25.1774 312.217 34.4678 312.217H79.8425C89.133 312.217 96.6644 304.685 96.6644 295.395V250.02C96.6644 240.73 89.133 233.198 79.8425 233.198Z" fill="white"/>
<path d="M79.8354 313.645H34.4679C29.6288 313.637 24.9902 311.711 21.5691 308.289C18.148 304.866 16.2237 300.227 16.218 295.388V250.006C16.2237 245.167 18.148 240.528 21.5691 237.105C24.9902 233.683 29.6288 231.757 34.4679 231.749H79.8354C84.6757 231.755 89.3162 233.68 92.7388 237.103C96.1614 240.525 98.0867 245.166 98.0924 250.006V295.366C98.0924 300.21 96.1696 304.856 92.7464 308.284C89.3231 311.711 84.6794 313.639 79.8354 313.645ZM34.4679 234.626C30.3888 234.63 26.4777 236.251 23.592 239.134C20.7063 242.017 19.0816 245.927 19.074 250.006V295.366C19.0778 299.449 20.7006 303.363 23.5865 306.25C26.4724 309.137 30.3857 310.762 34.4679 310.767H79.8354C83.9183 310.762 87.8323 309.137 90.7193 306.25C93.6063 303.363 95.2307 299.449 95.2364 295.366V250.006C95.2326 245.923 93.6088 242.007 90.7214 239.12C87.834 236.233 83.9189 234.609 79.8354 234.605L34.4679 234.626Z" fill="#262626"/>
<path d="M79.1928 259.795C78.3197 258.192 77.0166 256.864 75.43 255.961C68.1401 251.884 60.7787 254.411 57.173 259.709C53.5174 254.347 46.0132 251.812 38.609 256.139C37.2656 256.921 36.1428 258.032 35.3461 259.367C31.9974 264.993 32.6543 270.641 35.4674 274.66C35.5182 274.733 35.573 274.802 35.6317 274.867V274.903C35.6888 274.982 39.2731 279.137 41.515 281.408C45.7949 285.577 50.2821 289.528 54.9596 293.246C55.5647 293.739 56.3212 294.008 57.1016 294.008C57.882 294.008 58.6386 293.739 59.2436 293.246C63.2777 290.026 66.555 287.234 68.9897 285.099C70.8497 283.551 72.6052 281.881 74.2448 280.101C77.7434 276.238 85.4474 271.176 79.1928 259.795Z" fill="#D3B970"/>
<path d="M595.765 203.525H456.499C443.241 203.525 432.494 214.272 432.494 227.529V379.99C432.494 393.247 443.241 403.994 456.499 403.994H595.765C609.022 403.994 619.769 393.247 619.769 379.99V227.529C619.769 214.272 609.022 203.525 595.765 203.525Z" fill="white"/>
<path d="M595.765 405.422H456.499C449.756 405.415 443.292 402.733 438.524 397.965C433.756 393.197 431.074 386.732 431.066 379.99V227.529C431.074 220.786 433.756 214.322 438.524 209.554C443.292 204.786 449.756 202.104 456.499 202.097H595.765C602.507 202.104 608.972 204.786 613.74 209.554C618.508 214.322 621.19 220.786 621.197 227.529V379.99C621.19 386.732 618.508 393.197 613.74 397.965C608.972 402.733 602.507 405.415 595.765 405.422ZM456.499 204.953C450.513 204.96 444.775 207.341 440.543 211.573C436.311 215.806 433.93 221.544 433.922 227.529V379.99C433.93 385.975 436.311 391.713 440.543 395.945C444.775 400.178 450.513 402.559 456.499 402.566H595.765C601.75 402.559 607.488 400.178 611.72 395.945C615.953 391.713 618.334 385.975 618.341 379.99V227.529C618.336 221.543 615.955 215.804 611.722 211.571C607.49 207.339 601.751 204.958 595.765 204.953H456.499Z" fill="#262626"/>
<path d="M479.283 278.916H460.654C455.248 278.916 450.865 283.298 450.865 288.705V307.333C450.865 312.739 455.248 317.122 460.654 317.122H479.283C484.689 317.122 489.072 312.739 489.072 307.333V288.705C489.072 283.298 484.689 278.916 479.283 278.916Z" fill="#FFF1C9"/>
<path d="M479.283 336.914H460.654C455.248 336.914 450.865 341.297 450.865 346.703V365.331C450.865 370.738 455.248 375.12 460.654 375.12H479.283C484.689 375.12 489.072 370.738 489.072 365.331V346.703C489.072 341.297 484.689 336.914 479.283 336.914Z" fill="#FFF1C9"/>
<path d="M598.892 288.726H512.655C512.276 288.726 511.913 288.576 511.645 288.308C511.378 288.04 511.227 287.677 511.227 287.298C511.227 286.92 511.378 286.556 511.645 286.289C511.913 286.021 512.276 285.87 512.655 285.87H598.892C599.271 285.87 599.634 286.021 599.902 286.289C600.17 286.556 600.32 286.92 600.32 287.298C600.32 287.677 600.17 288.04 599.902 288.308C599.634 288.576 599.271 288.726 598.892 288.726Z" fill="#262626"/>
<path d="M565.812 309.753H512.655C512.276 309.753 511.913 309.603 511.645 309.335C511.378 309.067 511.227 308.704 511.227 308.325C511.227 307.947 511.378 307.584 511.645 307.316C511.913 307.048 512.276 306.897 512.655 306.897H565.812C566.191 306.897 566.554 307.048 566.822 307.316C567.09 307.584 567.24 307.947 567.24 308.325C567.24 308.704 567.09 309.067 566.822 309.335C566.554 309.603 566.191 309.753 565.812 309.753Z" fill="#262626"/>
<path d="M598.892 346.931H512.655C512.276 346.931 511.913 346.781 511.645 346.513C511.378 346.245 511.227 345.882 511.227 345.503C511.227 345.125 511.378 344.762 511.645 344.494C511.913 344.226 512.276 344.075 512.655 344.075H598.892C599.271 344.075 599.634 344.226 599.902 344.494C600.17 344.762 600.32 345.125 600.32 345.503C600.32 345.882 600.17 346.245 599.902 346.513C599.634 346.781 599.271 346.931 598.892 346.931Z" fill="#262626"/>
<path d="M565.812 367.959H512.655C512.276 367.959 511.913 367.808 511.645 367.541C511.378 367.273 511.227 366.91 511.227 366.531C511.227 366.152 511.378 365.789 511.645 365.521C511.913 365.253 512.276 365.103 512.655 365.103H565.812C566.191 365.103 566.554 365.253 566.822 365.521C567.09 365.789 567.24 366.152 567.24 366.531C567.24 366.91 567.09 367.273 566.822 367.541C566.554 367.808 566.191 367.959 565.812 367.959Z" fill="#262626"/>
<path d="M484.937 230.392C484.342 229.294 483.449 228.386 482.36 227.772C477.362 224.973 472.321 226.708 469.851 230.342C467.345 226.665 462.204 224.93 457.141 227.879C456.224 228.42 455.457 229.184 454.914 230.1C452.615 233.948 453.065 237.818 454.992 240.574C455.026 240.625 455.065 240.672 455.107 240.717C455.149 240.774 457.606 243.623 459.141 245.179C460.454 246.5 463.696 249.528 468.351 253.283C468.765 253.616 469.28 253.798 469.811 253.798C470.343 253.798 470.858 253.616 471.272 253.283C474.035 251.07 476.27 249.156 477.947 247.7C479.209 246.639 480.401 245.499 481.517 244.287C483.945 241.666 489.229 238.196 484.937 230.392Z" fill="#D3B970"/>
<path d="M424.655 497.685H270.002C267.642 497.686 265.306 497.222 263.125 496.32C260.945 495.418 258.964 494.095 257.295 492.426C255.626 490.758 254.302 488.777 253.399 486.597C252.496 484.417 252.031 482.081 252.031 479.721V450.069C252.033 439.49 256.236 429.344 263.717 421.864C271.197 414.383 281.343 410.18 291.922 410.178H459.369C466.376 410.178 473.095 412.961 478.05 417.915C483.004 422.87 485.787 429.589 485.787 436.596C485.784 444.621 484.201 452.567 481.127 459.98C478.053 467.394 473.55 474.129 467.873 479.801C462.196 485.474 455.458 489.973 448.042 493.042C440.627 496.11 432.68 497.688 424.655 497.685Z" fill="#FFE18B"/>
<path d="M185.5 500.52C179.098 500.387 172.784 498.995 166.92 496.422C161.056 493.849 155.756 490.146 151.323 485.525C146.89 480.904 143.411 475.454 141.084 469.488C138.757 463.522 137.629 457.157 137.762 450.754L140.425 322.627C140.581 315.269 143.652 308.274 148.963 303.179C154.275 298.085 161.392 295.308 168.75 295.459L210.769 296.337C218.121 296.497 225.109 299.569 230.197 304.879C235.285 310.189 238.056 317.302 237.901 324.655L235.266 452.782C235.133 459.184 233.741 465.498 231.168 471.362C228.595 477.226 224.892 482.526 220.271 486.959C215.65 491.392 210.2 494.871 204.234 497.198C198.268 499.525 191.903 500.654 185.5 500.52Z" fill="#FFE18B"/>
<path d="M414.173 410.17H375.403C375.024 410.17 374.661 410.02 374.393 409.752C374.125 409.484 373.975 409.121 373.975 408.742C373.975 408.364 374.125 408 374.393 407.733C374.661 407.465 375.024 407.314 375.403 407.314H414.173C414.552 407.314 414.915 407.465 415.183 407.733C415.451 408 415.601 408.364 415.601 408.742C415.601 409.121 415.451 409.484 415.183 409.752C414.915 410.02 414.552 410.17 414.173 410.17Z" fill="#262626"/>
<path d="M369.405 202.575C367.353 202.575 365.347 201.967 363.64 200.827C361.933 199.687 360.602 198.067 359.816 196.171C359.03 194.276 358.823 192.189 359.222 190.176C359.62 188.163 360.607 186.313 362.057 184.86C363.507 183.407 365.354 182.417 367.367 182.014C369.379 181.611 371.466 181.814 373.363 182.596C375.261 183.378 376.883 184.706 378.027 186.41C379.17 188.115 379.783 190.12 379.787 192.172C379.789 193.537 379.522 194.889 379.001 196.15C378.48 197.412 377.716 198.559 376.752 199.525C375.787 200.491 374.642 201.257 373.382 201.781C372.121 202.304 370.77 202.574 369.405 202.575ZM369.405 184.668C367.916 184.668 366.46 185.11 365.222 185.938C363.984 186.766 363.019 187.942 362.45 189.319C361.882 190.695 361.734 192.209 362.026 193.67C362.318 195.13 363.037 196.471 364.091 197.522C365.146 198.574 366.489 199.289 367.95 199.577C369.411 199.865 370.925 199.713 372.3 199.14C373.675 198.567 374.849 197.599 375.673 196.359C376.497 195.118 376.935 193.661 376.931 192.172C376.923 190.18 376.127 188.273 374.717 186.867C373.307 185.46 371.397 184.67 369.405 184.668Z" fill="#262626"/>
<path d="M238.101 328.389C237.722 328.389 237.359 328.239 237.091 327.971C236.823 327.703 236.673 327.34 236.673 326.961C236.487 298.465 213.182 297.844 212.204 297.844C211.825 297.844 211.462 297.694 211.194 297.426C210.926 297.158 210.776 296.795 210.776 296.416C210.776 296.037 210.926 295.674 211.194 295.406C211.462 295.139 211.825 294.988 212.204 294.988C212.475 294.988 239.293 295.609 239.5 326.968C239.5 327.347 239.35 327.71 239.082 327.978C238.814 328.246 238.451 328.396 238.072 328.396L238.101 328.389Z" fill="#262626"/>
<path d="M321.581 265.8H277.313C276.935 265.8 276.572 265.649 276.304 265.381C276.036 265.114 275.885 264.75 275.885 264.372C275.885 263.993 276.036 263.63 276.304 263.362C276.572 263.094 276.935 262.944 277.313 262.944H321.581C321.96 262.944 322.323 263.094 322.591 263.362C322.859 263.63 323.009 263.993 323.009 264.372C323.009 264.75 322.859 265.114 322.591 265.381C322.323 265.649 321.96 265.8 321.581 265.8Z" fill="#262626"/>
<path d="M279.627 492.138C279.248 492.138 278.885 491.987 278.617 491.719C278.349 491.452 278.199 491.088 278.199 490.71V425.936C278.199 425.557 278.349 425.194 278.617 424.926C278.885 424.658 279.248 424.508 279.627 424.508C280.006 424.508 280.369 424.658 280.637 424.926C280.904 425.194 281.055 425.557 281.055 425.936V490.71C281.055 491.088 280.904 491.452 280.637 491.719C280.369 491.987 280.006 492.138 279.627 492.138Z" fill="#262626"/>
<path d="M220.786 322.32H156.019C155.64 322.32 155.277 322.17 155.009 321.902C154.742 321.634 154.591 321.271 154.591 320.892C154.591 320.513 154.742 320.15 155.009 319.882C155.277 319.614 155.64 319.464 156.019 319.464H220.786C221.165 319.464 221.528 319.614 221.796 319.882C222.064 320.15 222.214 320.513 222.214 320.892C222.214 321.271 222.064 321.634 221.796 321.902C221.528 322.17 221.165 322.32 220.786 322.32Z" fill="#262626"/>
<path d="M65.2554 419.145C64.9628 419.146 64.6771 419.056 64.437 418.889C64.197 418.722 64.0141 418.485 63.9131 418.21C55.6307 395.619 38.509 377.276 38.3376 377.098C38.0773 376.822 37.937 376.455 37.9477 376.076C37.9584 375.697 38.1192 375.338 38.3948 375.077C38.6703 374.817 39.038 374.677 39.4169 374.687C39.7958 374.698 40.155 374.859 40.4154 375.134C40.5867 375.32 58.1083 394.07 66.5978 417.26C66.7267 417.616 66.7097 418.007 66.5505 418.35C66.3912 418.693 66.1027 418.958 65.7481 419.088C65.5889 419.138 65.4218 419.157 65.2554 419.145Z" fill="#262626"/>
<path d="M73.3379 421.473C72.9592 421.473 72.596 421.323 72.3282 421.055C72.0604 420.787 71.9099 420.424 71.9099 420.045V400.489C71.9099 400.11 72.0604 399.747 72.3282 399.479C72.596 399.211 72.9592 399.061 73.3379 399.061C73.7166 399.061 74.0799 399.211 74.3477 399.479C74.6155 399.747 74.7659 400.11 74.7659 400.489V420.045C74.7659 420.424 74.6155 420.787 74.3477 421.055C74.0799 421.323 73.7166 421.473 73.3379 421.473Z" fill="#262626"/>
<path d="M115.414 449.455C115.412 444.78 113.554 440.297 110.249 436.992C106.943 433.686 102.46 431.828 97.7853 431.826H93.8583V418.51H45.2634V431.833H41.3364C36.661 431.833 32.1771 433.691 28.8711 436.997C25.5651 440.303 23.7078 444.786 23.7078 449.462C23.7134 454.133 25.5735 458.611 28.8791 461.911C32.1847 465.211 36.6654 467.064 41.3364 467.062C39.0217 467.061 36.7295 467.516 34.5908 468.401C32.452 469.286 30.5086 470.584 28.8715 472.221C27.2344 473.857 25.9358 475.8 25.0498 477.938C24.1638 480.077 23.7078 482.369 23.7078 484.684C23.7068 486.999 24.1622 489.292 25.0478 491.431C25.9333 493.57 27.2318 495.514 28.869 497.151C30.5062 498.788 32.4499 500.087 34.5891 500.972C36.7284 501.858 39.0211 502.313 41.3364 502.312H97.7853C102.461 502.312 106.945 500.455 110.251 497.149C113.557 493.843 115.414 489.359 115.414 484.684C115.412 480.009 113.554 475.527 110.248 472.223C106.942 468.918 102.459 467.062 97.7853 467.062C102.457 467.062 106.938 465.208 110.243 461.906C113.548 458.605 115.408 454.126 115.414 449.455Z" fill="#F9B800"/>
<path d="M98.5279 468.59H78.6144C78.2357 468.59 77.8725 468.439 77.6047 468.172C77.3368 467.904 77.1864 467.541 77.1864 467.162C77.1864 466.783 77.3368 466.42 77.6047 466.152C77.8725 465.884 78.2357 465.734 78.6144 465.734H98.5279C98.9066 465.734 99.2698 465.884 99.5376 466.152C99.8054 466.42 99.9559 466.783 99.9559 467.162C99.9559 467.541 99.8054 467.904 99.5376 468.172C99.2698 468.439 98.9066 468.59 98.5279 468.59Z" fill="#262626"/>
<path d="M50.7042 468.49H40.2798C39.9011 468.49 39.5379 468.34 39.2701 468.072C39.0023 467.804 38.8518 467.441 38.8518 467.062C38.8518 466.683 39.0023 466.32 39.2701 466.052C39.5379 465.785 39.9011 465.634 40.2798 465.634H50.7042C51.0829 465.634 51.4462 465.785 51.714 466.052C51.9818 466.32 52.1322 466.683 52.1322 467.062C52.1322 467.441 51.9818 467.804 51.714 468.072C51.4462 468.34 51.0829 468.49 50.7042 468.49Z" fill="#262626"/>
<path d="M69.568 422.651C83.2316 422.651 94.3081 420.343 94.3081 417.496C94.3081 414.649 83.2316 412.341 69.568 412.341C55.9044 412.341 44.8279 414.649 44.8279 417.496C44.8279 420.343 55.9044 422.651 69.568 422.651Z" fill="#262626"/>
<path d="M73.338 400.489C79.7853 400.489 85.0119 395.262 85.0119 388.815C85.0119 382.367 79.7853 377.141 73.338 377.141C66.8906 377.141 61.6641 382.367 61.6641 388.815C61.6641 395.262 66.8906 400.489 73.338 400.489Z" fill="#FFBB45"/>
<path d="M35.1747 383.852C42.0834 383.852 47.684 378.252 47.684 371.343C47.684 364.434 42.0834 358.834 35.1747 358.834C28.266 358.834 22.6654 364.434 22.6654 371.343C22.6654 378.252 28.266 383.852 35.1747 383.852Z" fill="#FFBB45"/>
<path d="M185.772 191.844C184.344 187.945 182.28 182.94 179.381 178.756C176.925 175.186 174.119 173.687 171.035 174.222C170.143 174.329 169.285 174.631 168.524 175.107C167.762 175.584 167.115 176.223 166.629 176.978C164.195 180.884 165.815 187.774 166.629 190.544L166.736 190.901L164.016 191.765L163.887 191.344C162.752 187.431 161.274 180.17 164.209 175.464C164.904 174.365 165.832 173.431 166.928 172.729C168.023 172.027 169.26 171.574 170.549 171.402C174.769 170.688 178.639 172.644 181.737 177.114C184.836 181.583 186.943 186.781 188.456 190.83L185.772 191.844Z" fill="#262626"/>
</svg>
